<?xml version="1.0" encoding="iso-8859-1"?>
<!-- Generator: Adobe Illustrator 19.0.0, SVG Export Plug-In . SVG Version: 6.00 Build 0)  -->
<svg version="1.1" id="Layer_1" xmlns="http://www.w3.org/2000/svg" xmlns:xlink="http://www.w3.org/1999/xlink" x="0px" y="0px"
	 viewBox="0 0 512 512" style="enable-background:new 0 0 512 512;" xml:space="preserve">
<g>
	<g>
		<path d="M447.71,149.579c-1.508-2.323-4.09-3.726-6.86-3.726H338.745c-0.003,0-0.007,0-0.01,0H236.48c-0.003,0-0.007,0-0.01,0
			H134.053c-3.231,0-6.158,1.901-7.473,4.852L35.754,354.637c-1.127,2.53-0.897,5.459,0.612,7.783
			c1.508,2.323,4.09,3.726,6.86,3.726h102.221c0.013,0,0.027,0.002,0.041,0.002c0.01,0,0.02-0.002,0.029-0.002h102.195
			c0.013,0,0.027,0.002,0.041,0.002c0.01,0,0.02-0.002,0.029-0.002h102.24c3.232-0.001,6.159-1.901,7.473-4.853l90.827-203.93
			C449.45,154.832,449.22,151.903,447.71,149.579z M241.631,162.215h84.356l-22.989,51.618h-84.356L241.631,162.215z
			 M295.711,230.192l-22.989,51.616h-84.356l22.989-51.616H295.711z M139.364,162.215h84.357l-22.989,51.618h-84.356
			L139.364,162.215z M109.09,230.192h84.357l-22.989,51.616H86.101L109.09,230.192z M140.181,349.784H55.826l22.989-51.616h84.357
			L140.181,349.784z M242.447,349.784h-84.356l22.989-51.616h84.356L242.447,349.784z M344.713,349.784h-84.357l22.989-51.616
			h84.356L344.713,349.784z M374.989,281.808h-84.357l22.989-51.616h84.356L374.989,281.808z M405.265,213.833h-84.357
			l22.989-51.618h84.357L405.265,213.833z"/>
	</g>
</g>
<g>
	<g>
		<path d="M511.546,387.998l-15.984-45.953c-1.483-4.268-6.146-6.522-10.414-5.039c-4.267,1.483-6.522,6.146-5.039,10.412
			l12.203,35.085h-22.375l-37.743-108.508l12.563-28.209l24.784,71.255c1.484,4.268,6.149,6.523,10.414,5.039
			c4.267-1.483,6.522-6.146,5.039-10.412l-30.511-87.717l26.407-59.291c5.066-11.376,4.042-24.401-2.74-34.844
			c-6.782-10.444-18.264-16.678-30.716-16.678H196.617c-4.519,0-8.18,3.662-8.18,8.18s3.661,8.179,8.18,8.179h250.82
			c6.992,0,13.187,3.364,16.995,9.228c3.809,5.865,4.36,12.892,1.516,19.28l-94.636,212.482c-3.251,7.302-10.518,12.02-18.511,12.02
			h-59.725c-4.519,0-8.18,3.662-8.18,8.18c0,4.518,3.661,8.18,8.18,8.18h59.725c14.446,0,27.577-8.527,33.456-21.723l36.213-81.308
			l33.927,97.539c1.144,3.288,4.245,5.493,7.726,5.493h39.696c2.648,0,5.133-1.281,6.666-3.44
			C512.02,393.267,512.416,390.5,511.546,387.998z"/>
	</g>
</g>
<g>
	<g>
		<path d="M262.909,382.504H36.641c-6.992,0-13.187-3.364-16.995-9.228c-3.809-5.864-4.36-12.892-1.516-19.28l94.636-212.482
			c3.251-7.302,10.518-12.02,18.511-12.02h34.826c4.519,0,8.18-3.662,8.18-8.18s-3.661-8.18-8.18-8.18h-34.826
			c-14.446,0-27.577,8.527-33.456,21.723L3.185,347.34c-5.066,11.374-4.042,24.401,2.74,34.844
			c6.782,10.443,18.264,16.679,30.716,16.679h226.268c4.519,0,8.18-3.662,8.18-8.18
			C271.088,386.166,267.427,382.504,262.909,382.504z"/>
	</g>
</g>
<g>
</g>
<g>
</g>
<g>
</g>
<g>
</g>
<g>
</g>
<g>
</g>
<g>
</g>
<g>
</g>
<g>
</g>
<g>
</g>
<g>
</g>
<g>
</g>
<g>
</g>
<g>
</g>
<g>
</g>
</svg>
